<mxfile host="app.diagrams.net" modified="2024-07-14T17:54:17.297Z" agent="Mozilla/5.0 (X11; Linux x86_64) AppleWebKit/537.36 (KHTML, like Gecko) Chrome/126.0.0.0 Safari/537.36" etag="7YiY-YytPEv1PXqMBkuV" version="24.6.5" type="device">
  <diagram name="Page-1" id="dvvs6p-k9KW5yi6v_OSo">
    <mxGraphModel dx="2555" dy="2099" grid="1" gridSize="10" guides="1" tooltips="1" connect="1" arrows="1" fold="1" page="1" pageScale="1" pageWidth="850" pageHeight="1100" math="0" shadow="0">
      <root>
        <mxCell id="0" />
        <mxCell id="1" parent="0" />
        <mxCell id="wa9RRMQDN3JdH_wZfVed-1" value="&lt;font face=&quot;Lucida Console&quot; color=&quot;#ea6b66&quot; style=&quot;font-size: 18px;&quot;&gt;IGameObjectComponent&lt;/font&gt;&lt;div&gt;&lt;br&gt;&lt;/div&gt;&lt;div&gt;&lt;font color=&quot;#a59eff&quot; style=&quot;font-size: 18px;&quot; face=&quot;Lucida Console&quot;&gt;OnUpdate()&lt;/font&gt;&lt;/div&gt;&lt;div&gt;&lt;font style=&quot;font-size: 18px;&quot; face=&quot;Lucida Console&quot;&gt;// Do nothing or basic stuff&lt;/font&gt;&lt;/div&gt;&lt;div&gt;&lt;font style=&quot;font-size: 14px;&quot; face=&quot;Lucida Console&quot;&gt;&lt;br&gt;&lt;/font&gt;&lt;/div&gt;" style="rounded=1;whiteSpace=wrap;html=1;" vertex="1" parent="1">
          <mxGeometry x="290" y="-1090" width="270" height="130" as="geometry" />
        </mxCell>
        <mxCell id="wa9RRMQDN3JdH_wZfVed-2" style="edgeStyle=orthogonalEdgeStyle;rounded=0;orthogonalLoop=1;jettySize=auto;html=1;entryX=0;entryY=0.5;entryDx=0;entryDy=0;" edge="1" parent="1" source="wa9RRMQDN3JdH_wZfVed-3" target="wa9RRMQDN3JdH_wZfVed-1">
          <mxGeometry relative="1" as="geometry" />
        </mxCell>
        <mxCell id="wa9RRMQDN3JdH_wZfVed-3" value="&lt;font face=&quot;Lucida Console&quot;&gt;&lt;span style=&quot;font-size: 18px;&quot;&gt;Transform (IGameObjectComponent)&lt;/span&gt;&lt;/font&gt;&lt;br&gt;&lt;div&gt;&lt;br&gt;&lt;/div&gt;&lt;div&gt;&lt;font face=&quot;Lucida Console&quot; style=&quot;font-size: 18px;&quot;&gt;// properties&lt;/font&gt;&lt;/div&gt;&lt;div&gt;&lt;font face=&quot;Lucida Console&quot; style=&quot;font-size: 18px;&quot;&gt;Pos2D m_pos&lt;/font&gt;&lt;/div&gt;&lt;div&gt;&lt;font face=&quot;Lucida Console&quot;&gt;&lt;span style=&quot;font-size: 18px;&quot;&gt;float m_angle&lt;/span&gt;&lt;/font&gt;&lt;/div&gt;&lt;div&gt;&lt;font face=&quot;Lucida Console&quot;&gt;&lt;span style=&quot;font-size: 18px;&quot;&gt;Pos2D m_center&lt;/span&gt;&lt;/font&gt;&lt;/div&gt;&lt;div&gt;&lt;font face=&quot;Lucida Console&quot;&gt;&lt;span style=&quot;font-size: 18px;&quot;&gt;FLIP m_flip&lt;/span&gt;&lt;/font&gt;&lt;/div&gt;&lt;div&gt;&lt;font face=&quot;Lucida Console&quot;&gt;&lt;span style=&quot;font-size: 18px;&quot;&gt;&lt;br&gt;&lt;/span&gt;&lt;/font&gt;&lt;/div&gt;&lt;div&gt;&lt;font face=&quot;Lucida Console&quot;&gt;&lt;span style=&quot;font-size: 18px;&quot;&gt;//Ctors&lt;/span&gt;&lt;/font&gt;&lt;/div&gt;&lt;div&gt;&lt;font face=&quot;Lucida Console&quot;&gt;&lt;span style=&quot;font-size: 18px;&quot;&gt;Transform()&lt;/span&gt;&lt;/font&gt;&lt;/div&gt;&lt;div&gt;&lt;font face=&quot;Lucida Console&quot;&gt;&lt;span style=&quot;font-size: 18px;&quot;&gt;&lt;br&gt;&lt;/span&gt;&lt;/font&gt;&lt;/div&gt;&lt;div&gt;&lt;font face=&quot;Lucida Console&quot;&gt;&lt;span style=&quot;font-size: 18px;&quot;&gt;// methods&lt;/span&gt;&lt;/font&gt;&lt;/div&gt;&lt;div&gt;&lt;font face=&quot;Lucida Console&quot;&gt;&lt;span style=&quot;font-size: 18px;&quot;&gt;SetPosition(pos)&lt;/span&gt;&lt;/font&gt;&lt;/div&gt;&lt;div&gt;&lt;font face=&quot;Lucida Console&quot;&gt;&lt;span style=&quot;font-size: 18px;&quot;&gt;SetAngle(angle)&lt;/span&gt;&lt;/font&gt;&lt;/div&gt;&lt;div&gt;&lt;font face=&quot;Lucida Console&quot;&gt;&lt;span style=&quot;font-size: 18px;&quot;&gt;Move(pos)&lt;/span&gt;&lt;/font&gt;&lt;/div&gt;&lt;div&gt;&lt;font face=&quot;Lucida Console&quot;&gt;&lt;span style=&quot;font-size: 18px;&quot;&gt;Rotate(angle)&lt;/span&gt;&lt;/font&gt;&lt;/div&gt;&lt;div&gt;&lt;font face=&quot;Lucida Console&quot;&gt;&lt;span style=&quot;font-size: 18px;&quot;&gt;FlipHorizontally()&lt;/span&gt;&lt;/font&gt;&lt;/div&gt;&lt;div&gt;&lt;font face=&quot;Lucida Console&quot;&gt;&lt;span style=&quot;font-size: 18px;&quot;&gt;FlipVertically()&lt;/span&gt;&lt;/font&gt;&lt;/div&gt;&lt;div&gt;&lt;br&gt;&lt;/div&gt;&lt;div&gt;&lt;font style=&quot;font-size: 18px;&quot; face=&quot;Lucida Console&quot;&gt;&lt;font color=&quot;#736b00&quot;&gt;OnUpdate() override&lt;/font&gt;&amp;nbsp;:&lt;/font&gt;&lt;/div&gt;&lt;div&gt;&lt;font style=&quot;font-size: 18px;&quot; face=&quot;Lucida Console&quot;&gt;// do nothing&lt;/font&gt;&lt;/div&gt;&lt;div&gt;&lt;font style=&quot;font-size: 14px;&quot; face=&quot;Lucida Console&quot;&gt;&lt;br&gt;&lt;/font&gt;&lt;/div&gt;" style="rounded=1;whiteSpace=wrap;html=1;" vertex="1" parent="1">
          <mxGeometry x="30" y="-920" width="270" height="500" as="geometry" />
        </mxCell>
        <mxCell id="wa9RRMQDN3JdH_wZfVed-4" style="edgeStyle=orthogonalEdgeStyle;rounded=0;orthogonalLoop=1;jettySize=auto;html=1;" edge="1" parent="1" source="wa9RRMQDN3JdH_wZfVed-5" target="wa9RRMQDN3JdH_wZfVed-1">
          <mxGeometry relative="1" as="geometry" />
        </mxCell>
        <mxCell id="wa9RRMQDN3JdH_wZfVed-5" value="&lt;font face=&quot;Lucida Console&quot;&gt;&lt;span style=&quot;font-size: 18px;&quot;&gt;Texture (IGameObjectComponent)&lt;/span&gt;&lt;/font&gt;&lt;br&gt;&lt;div&gt;&lt;br&gt;&lt;/div&gt;&lt;div&gt;&lt;font face=&quot;Lucida Console&quot; style=&quot;font-size: 18px;&quot;&gt;// properties&lt;/font&gt;&lt;/div&gt;&lt;div&gt;&lt;span style=&quot;font-family: &amp;quot;Lucida Console&amp;quot;; font-size: 18px;&quot;&gt;SDL_Texture* m_texture&lt;/span&gt;&lt;font face=&quot;Lucida Console&quot; style=&quot;font-size: 18px;&quot;&gt;&lt;br&gt;&lt;/font&gt;&lt;/div&gt;&lt;div&gt;&lt;font face=&quot;Lucida Console&quot;&gt;&lt;span style=&quot;font-size: 18px;&quot;&gt;RGBColor m_color&lt;/span&gt;&lt;/font&gt;&lt;/div&gt;&lt;div&gt;&lt;font face=&quot;Lucida Console&quot;&gt;&lt;span style=&quot;font-size: 18px;&quot;&gt;data m_pixel_data&lt;/span&gt;&lt;/font&gt;&lt;/div&gt;&lt;div&gt;&lt;font face=&quot;Lucida Console&quot;&gt;&lt;span style=&quot;font-size: 18px;&quot;&gt;&lt;br&gt;&lt;/span&gt;&lt;/font&gt;&lt;/div&gt;&lt;div&gt;&lt;font face=&quot;Lucida Console&quot;&gt;&lt;span style=&quot;font-size: 18px;&quot;&gt;// Ctors (private, Renderer = friend)&lt;/span&gt;&lt;/font&gt;&lt;/div&gt;&lt;div&gt;&lt;font face=&quot;Lucida Console&quot;&gt;&lt;span style=&quot;font-size: 18px;&quot;&gt;Texture(&lt;/span&gt;&lt;/font&gt;&lt;span style=&quot;font-family: vuWXC6NJlYmNrTnMt-PD; font-size: 18px;&quot;&gt;&lt;font color=&quot;#ff00ff&quot;&gt;RenderContext&lt;/font&gt;&lt;/span&gt;&lt;span style=&quot;font-family: IPpWo3XEnl8AiOz_ufZt; font-size: medium; background-color: initial;&quot;&gt;&amp;nbsp;, str filename&lt;/span&gt;&lt;span style=&quot;font-size: 18px; font-family: &amp;quot;Lucida Console&amp;quot;; background-color: initial;&quot;&gt;)&lt;/span&gt;&lt;/div&gt;&lt;div&gt;&lt;span style=&quot;font-size: 18px; font-family: &amp;quot;Lucida Console&amp;quot;; background-color: initial;&quot;&gt;Texture(&lt;/span&gt;&lt;span style=&quot;font-family: vuWXC6NJlYmNrTnMt-PD; font-size: 18px;&quot;&gt;&lt;font color=&quot;#ff00ff&quot;&gt;RenderContext&lt;/font&gt;&lt;/span&gt;&lt;span style=&quot;font-size: 18px; font-family: &amp;quot;Lucida Console&amp;quot;; background-color: initial;&quot;&gt;&amp;nbsp;, size)&lt;/span&gt;&lt;/div&gt;&lt;div&gt;&lt;font face=&quot;Lucida Console&quot;&gt;&lt;span style=&quot;font-size: 18px;&quot;&gt;&lt;br&gt;&lt;/span&gt;&lt;/font&gt;&lt;/div&gt;&lt;div&gt;&lt;font face=&quot;Lucida Console&quot;&gt;&lt;span style=&quot;font-size: 18px;&quot;&gt;// methods&lt;/span&gt;&lt;/font&gt;&lt;/div&gt;&lt;div&gt;&lt;font face=&quot;Lucida Console&quot;&gt;&lt;span style=&quot;font-size: 18px;&quot;&gt;SetColor(rgb)&lt;/span&gt;&lt;/font&gt;&lt;/div&gt;&lt;div&gt;&lt;font face=&quot;Lucida Console&quot;&gt;&lt;span style=&quot;font-size: 18px;&quot;&gt;SetAlpha(alpha)&lt;/span&gt;&lt;/font&gt;&lt;/div&gt;&lt;div&gt;&lt;font face=&quot;Lucida Console&quot;&gt;&lt;span style=&quot;font-size: 18px;&quot;&gt;SetPixelData(p_data)&lt;/span&gt;&lt;/font&gt;&lt;/div&gt;&lt;div&gt;&lt;br&gt;&lt;/div&gt;&lt;div&gt;&lt;font style=&quot;font-size: 18px;&quot; face=&quot;Lucida Console&quot;&gt;&lt;font color=&quot;#736b00&quot;&gt;OnUpdate() override&lt;/font&gt;&amp;nbsp;:&lt;/font&gt;&lt;/div&gt;&lt;div&gt;&lt;br&gt;&lt;/div&gt;&lt;div&gt;&lt;font style=&quot;font-size: 14px;&quot; face=&quot;Lucida Console&quot;&gt;&lt;br&gt;&lt;/font&gt;&lt;/div&gt;" style="rounded=1;whiteSpace=wrap;html=1;" vertex="1" parent="1">
          <mxGeometry x="370" y="-920" width="430" height="500" as="geometry" />
        </mxCell>
        <mxCell id="wa9RRMQDN3JdH_wZfVed-6" style="edgeStyle=orthogonalEdgeStyle;rounded=0;orthogonalLoop=1;jettySize=auto;html=1;entryX=1;entryY=0.5;entryDx=0;entryDy=0;" edge="1" parent="1" source="wa9RRMQDN3JdH_wZfVed-7" target="wa9RRMQDN3JdH_wZfVed-1">
          <mxGeometry relative="1" as="geometry">
            <Array as="points">
              <mxPoint x="1145" y="-1025" />
            </Array>
          </mxGeometry>
        </mxCell>
        <mxCell id="wa9RRMQDN3JdH_wZfVed-7" value="&lt;font face=&quot;Lucida Console&quot; style=&quot;font-size: 18px;&quot;&gt;Renderer (IGameObjectComponent)&lt;br&gt;&lt;/font&gt;&lt;div style=&quot;font-size: 18px;&quot;&gt;&lt;font face=&quot;vuWXC6NJlYmNrTnMt-PD&quot; style=&quot;font-size: 18px;&quot;&gt;&lt;br&gt;&lt;/font&gt;&lt;/div&gt;&lt;div style=&quot;font-size: 18px;&quot;&gt;&lt;font face=&quot;vuWXC6NJlYmNrTnMt-PD&quot; style=&quot;font-size: 18px;&quot;&gt;// properties&lt;/font&gt;&lt;/div&gt;&lt;div style=&quot;font-size: 18px;&quot;&gt;&lt;font face=&quot;vuWXC6NJlYmNrTnMt-PD&quot; style=&quot;font-size: 18px;&quot;&gt;SDL_Render* m_renderer&lt;/font&gt;&lt;/div&gt;&lt;div style=&quot;font-size: 18px;&quot;&gt;&lt;font face=&quot;vuWXC6NJlYmNrTnMt-PD&quot; style=&quot;font-size: 18px;&quot;&gt;vector&amp;lt;Texture *&amp;gt;m_textures&lt;/font&gt;&lt;/div&gt;&lt;div style=&quot;font-size: 18px;&quot;&gt;&lt;font face=&quot;vuWXC6NJlYmNrTnMt-PD&quot; style=&quot;font-size: 18px;&quot;&gt;const Transform *m_transform&lt;/font&gt;&lt;/div&gt;&lt;div style=&quot;font-size: 18px;&quot;&gt;&lt;font face=&quot;vuWXC6NJlYmNrTnMt-PD&quot; style=&quot;font-size: 18px;&quot;&gt;&lt;br&gt;&lt;/font&gt;&lt;/div&gt;&lt;div style=&quot;font-size: 18px;&quot;&gt;&lt;font face=&quot;vuWXC6NJlYmNrTnMt-PD&quot; style=&quot;font-size: 18px;&quot;&gt;// Ctor&lt;/font&gt;&lt;/div&gt;&lt;div style=&quot;font-size: 18px;&quot;&gt;&lt;font face=&quot;vuWXC6NJlYmNrTnMt-PD&quot; style=&quot;font-size: 18px;&quot;&gt;Renderer(&lt;font color=&quot;#ff00ff&quot;&gt;RenderContext&lt;/font&gt;, const Transform*)&lt;/font&gt;&lt;/div&gt;&lt;div style=&quot;font-size: 18px;&quot;&gt;&lt;font face=&quot;vuWXC6NJlYmNrTnMt-PD&quot; style=&quot;font-size: 18px;&quot;&gt;&lt;br&gt;&lt;/font&gt;&lt;/div&gt;&lt;div style=&quot;font-size: 18px;&quot;&gt;&lt;font face=&quot;vuWXC6NJlYmNrTnMt-PD&quot; style=&quot;font-size: 18px;&quot;&gt;// methods&lt;/font&gt;&lt;/div&gt;&lt;div style=&quot;&quot;&gt;&lt;div style=&quot;font-size: 18px;&quot;&gt;&lt;font face=&quot;vuWXC6NJlYmNrTnMt-PD&quot; style=&quot;font-size: 18px;&quot;&gt;SetDrawColor(color)&lt;br&gt;&lt;/font&gt;&lt;/div&gt;&lt;div style=&quot;font-size: 18px;&quot;&gt;&lt;font face=&quot;vuWXC6NJlYmNrTnMt-PD&quot; style=&quot;font-size: 18px;&quot;&gt;DrawPoint(pos)&lt;/font&gt;&lt;/div&gt;&lt;div style=&quot;font-size: 18px;&quot;&gt;&lt;font face=&quot;vuWXC6NJlYmNrTnMt-PD&quot; style=&quot;font-size: 18px;&quot;&gt;DrawPoints(pos[])&lt;/font&gt;&lt;/div&gt;&lt;div style=&quot;font-size: 18px;&quot;&gt;&lt;font face=&quot;vuWXC6NJlYmNrTnMt-PD&quot; style=&quot;font-size: 18px;&quot;&gt;DrawLine(start, end)&lt;/font&gt;&lt;/div&gt;&lt;div style=&quot;font-size: 18px;&quot;&gt;&lt;font face=&quot;vuWXC6NJlYmNrTnMt-PD&quot; style=&quot;font-size: 18px;&quot;&gt;DrawLines(pos[])&lt;/font&gt;&lt;/div&gt;&lt;div style=&quot;font-size: 18px;&quot;&gt;&lt;font face=&quot;vuWXC6NJlYmNrTnMt-PD&quot; style=&quot;font-size: 18px;&quot;&gt;DrawRect(rect)&lt;/font&gt;&lt;/div&gt;&lt;div style=&quot;font-size: 18px;&quot;&gt;&lt;font face=&quot;vuWXC6NJlYmNrTnMt-PD&quot; style=&quot;font-size: 18px;&quot;&gt;DrawRects(rect[])&lt;/font&gt;&lt;/div&gt;&lt;div style=&quot;font-size: 18px;&quot;&gt;&lt;font face=&quot;vuWXC6NJlYmNrTnMt-PD&quot; style=&quot;font-size: 18px;&quot;&gt;FillRect(rect)&lt;/font&gt;&lt;/div&gt;&lt;div style=&quot;font-size: 18px;&quot;&gt;&lt;font face=&quot;vuWXC6NJlYmNrTnMt-PD&quot; style=&quot;font-size: 18px;&quot;&gt;FillRects(rect[])&lt;/font&gt;&lt;/div&gt;&lt;/div&gt;&lt;div style=&quot;font-size: 18px;&quot;&gt;&lt;span style=&quot;color: rgb(255, 0, 255); font-family: vuWXC6NJlYmNrTnMt-PD; background-color: initial;&quot;&gt;RenderContext &lt;/span&gt;&lt;span style=&quot;font-family: vuWXC6NJlYmNrTnMt-PD; background-color: initial;&quot;&gt;GetRenderContext&lt;/span&gt;&lt;font face=&quot;vuWXC6NJlYmNrTnMt-PD&quot; style=&quot;font-size: 18px;&quot;&gt;()&lt;/font&gt;&lt;/div&gt;&lt;div style=&quot;font-size: 18px;&quot;&gt;&lt;font face=&quot;vuWXC6NJlYmNrTnMt-PD&quot; style=&quot;font-size: 18px;&quot;&gt;AddTexture(Texture*)&lt;/font&gt;&lt;/div&gt;&lt;div style=&quot;font-size: 18px;&quot;&gt;&lt;pre style=&quot;font-size: 12px; overflow: visible; margin-top: 0px; margin-bottom: 0px;&quot; class=&quot;sourceCode c&quot;&gt;&lt;br&gt;&lt;/pre&gt;&lt;/div&gt;&lt;div style=&quot;font-size: 18px;&quot;&gt;&lt;font face=&quot;vuWXC6NJlYmNrTnMt-PD&quot; style=&quot;font-size: 18px;&quot;&gt;&lt;br&gt;&lt;/font&gt;&lt;/div&gt;&lt;div style=&quot;font-size: 18px;&quot;&gt;&lt;font face=&quot;vuWXC6NJlYmNrTnMt-PD&quot; style=&quot;font-size: 18px;&quot;&gt;&lt;font style=&quot;background-color: initial; font-size: 18px;&quot; color=&quot;#736b00&quot;&gt;OnUpdate() override&lt;/font&gt;&lt;span style=&quot;background-color: initial;&quot;&gt; :&lt;/span&gt;&lt;br&gt;&lt;/font&gt;&lt;/div&gt;&lt;div style=&quot;font-size: 18px;&quot;&gt;&lt;font face=&quot;vuWXC6NJlYmNrTnMt-PD&quot; style=&quot;font-size: 18px;&quot;&gt;&lt;span style=&quot;background-color: initial;&quot;&gt;// if m_texture was added, copy it to new location&lt;/span&gt;&lt;/font&gt;&lt;/div&gt;&lt;div style=&quot;font-size: 18px;&quot;&gt;&lt;font face=&quot;vuWXC6NJlYmNrTnMt-PD&quot; style=&quot;font-size: 18px;&quot;&gt;&lt;span style=&quot;background-color: initial;&quot;&gt;foreach(&lt;font color=&quot;#00cc00&quot;&gt;m_textures&lt;/font&gt;) :&lt;/span&gt;&lt;/font&gt;&lt;/div&gt;&lt;div style=&quot;font-size: 18px;&quot;&gt;&lt;font face=&quot;vuWXC6NJlYmNrTnMt-PD&quot; style=&quot;font-size: 18px;&quot;&gt;SDL_RenderCopy(&lt;font color=&quot;#00cc00&quot;&gt;m_renderer&lt;/font&gt;, &lt;font color=&quot;#00cc00&quot;&gt;texture&lt;/font&gt;-&amp;gt;get(), &lt;font color=&quot;#00cc00&quot;&gt;m_transform&lt;/font&gt;-&amp;gt;get())&lt;/font&gt;&lt;/div&gt;&lt;div style=&quot;font-size: 18px;&quot;&gt;&lt;font style=&quot;font-size: 18px;&quot; face=&quot;Lucida Console&quot;&gt;&lt;br&gt;&lt;/font&gt;&lt;/div&gt;" style="rounded=1;whiteSpace=wrap;html=1;" vertex="1" parent="1">
          <mxGeometry x="885" y="-920" width="520" height="720" as="geometry" />
        </mxCell>
        <mxCell id="wa9RRMQDN3JdH_wZfVed-8" value="&lt;font color=&quot;#ff9999&quot; face=&quot;Lucida Console&quot;&gt;&lt;span style=&quot;font-size: 18px;&quot;&gt;IGameObject&lt;/span&gt;&lt;/font&gt;&lt;div&gt;&lt;span style=&quot;font-family: &amp;quot;Lucida Console&amp;quot;; font-size: 18px;&quot;&gt;&lt;br&gt;&lt;/span&gt;&lt;/div&gt;&lt;div&gt;&lt;span style=&quot;font-family: &amp;quot;Lucida Console&amp;quot;; font-size: 18px;&quot;&gt;// add component&lt;/span&gt;&lt;/div&gt;&lt;div&gt;&lt;span style=&quot;font-family: &amp;quot;Lucida Console&amp;quot;; font-size: 18px;&quot;&gt;&lt;font color=&quot;#a59eff&quot;&gt;AddComponent(type)&lt;/font&gt;&lt;/span&gt;&lt;/div&gt;&lt;div&gt;&lt;span style=&quot;font-family: &amp;quot;Lucida Console&amp;quot;; font-size: 18px;&quot;&gt;// add child&lt;/span&gt;&lt;/div&gt;&lt;div&gt;&lt;span style=&quot;font-family: &amp;quot;Lucida Console&amp;quot;; font-size: 18px;&quot;&gt;&lt;font color=&quot;#a59eff&quot;&gt;AddChild(name)&lt;/font&gt;&lt;/span&gt;&lt;/div&gt;&lt;div&gt;&lt;br&gt;&lt;/div&gt;&lt;div&gt;&lt;span style=&quot;color: rgb(158, 168, 255); font-family: &amp;quot;Lucida Console&amp;quot;; font-size: 18px;&quot;&gt;OnUpdate()&lt;/span&gt;&lt;br&gt;&lt;/div&gt;&lt;div&gt;&lt;font style=&quot;font-size: 18px;&quot; face=&quot;Lucida Console&quot;&gt;&lt;font color=&quot;#a59eff&quot;&gt;Update()&lt;/font&gt;&amp;nbsp;&lt;/font&gt;&lt;/div&gt;&lt;div&gt;&lt;font color=&quot;#9ea8ff&quot; style=&quot;font-size: 18px;&quot; face=&quot;Lucida Console&quot;&gt;OnKeyDown(key)&lt;/font&gt;&lt;/div&gt;&lt;div&gt;&lt;font color=&quot;#9ea8ff&quot; style=&quot;font-size: 18px;&quot; face=&quot;Lucida Console&quot;&gt;OnKeyUp(key)&lt;/font&gt;&lt;/div&gt;&lt;div&gt;&lt;br&gt;&lt;/div&gt;&lt;div&gt;&lt;font style=&quot;font-size: 18px;&quot; face=&quot;Lucida Console&quot;&gt;&lt;br&gt;&lt;/font&gt;&lt;/div&gt;&lt;div&gt;&lt;br&gt;&lt;/div&gt;&lt;div&gt;&lt;font style=&quot;font-size: 18px;&quot; face=&quot;Lucida Console&quot;&gt;&lt;br&gt;&lt;/font&gt;&lt;/div&gt;&lt;div&gt;&lt;font style=&quot;font-size: 14px;&quot; face=&quot;Lucida Console&quot;&gt;&lt;br&gt;&lt;/font&gt;&lt;/div&gt;" style="rounded=1;whiteSpace=wrap;html=1;" vertex="1" parent="1">
          <mxGeometry x="370" y="-380" width="430" height="350" as="geometry" />
        </mxCell>
        <mxCell id="wa9RRMQDN3JdH_wZfVed-9" value="&lt;font style=&quot;font-size: 18px;&quot; face=&quot;Lucida Console&quot;&gt;Example:&lt;/font&gt;&lt;div&gt;&lt;font face=&quot;Lucida Console&quot;&gt;&lt;span style=&quot;font-size: 18px;&quot;&gt;// create window&lt;/span&gt;&lt;/font&gt;&lt;/div&gt;&lt;div&gt;&lt;font color=&quot;#00cc00&quot; style=&quot;font-family: &amp;quot;Lucida Console&amp;quot;; font-size: 18px;&quot;&gt;win&lt;/font&gt;&lt;font style=&quot;font-family: &amp;quot;Lucida Console&amp;quot;; font-size: 18px;&quot; color=&quot;#994c00&quot;&gt; = new Window(&quot;window&quot;, {100,100})&lt;/font&gt;&lt;/div&gt;&lt;div&gt;&lt;div&gt;&lt;font face=&quot;Lucida Console&quot;&gt;&lt;span style=&quot;font-size: 18px;&quot;&gt;// create event dispatcher&lt;/span&gt;&lt;/font&gt;&lt;/div&gt;&lt;div&gt;&lt;font color=&quot;#00cc00&quot; style=&quot;font-family: &amp;quot;Lucida Console&amp;quot;; font-size: 18px;&quot;&gt;eventDispatcher&lt;/font&gt;&lt;font style=&quot;font-family: &amp;quot;Lucida Console&amp;quot;; font-size: 18px;&quot; color=&quot;#994c00&quot;&gt;&amp;nbsp;= new EventDispatcher()&lt;/font&gt;&lt;/div&gt;&lt;div&gt;&lt;font face=&quot;Lucida Console&quot;&gt;&lt;span style=&quot;font-size: 18px;&quot;&gt;// create game object&lt;/span&gt;&lt;/font&gt;&lt;/div&gt;&lt;div&gt;&lt;font color=&quot;#00cc00&quot; style=&quot;font-family: &amp;quot;Lucida Console&amp;quot;; font-size: 18px;&quot;&gt;player&lt;/font&gt;&lt;font style=&quot;font-family: &amp;quot;Lucida Console&amp;quot;; font-size: 18px;&quot; color=&quot;#994c00&quot;&gt;&amp;nbsp;= new Player(&quot;player&quot;)&lt;/font&gt;&lt;/div&gt;&lt;div&gt;&lt;span style=&quot;font-family: &amp;quot;Lucida Console&amp;quot;; font-size: 18px;&quot;&gt;// get renderer context&lt;/span&gt;&lt;font style=&quot;font-family: &amp;quot;Lucida Console&amp;quot;; font-size: 18px;&quot; color=&quot;#994c00&quot;&gt;&lt;br&gt;&lt;/font&gt;&lt;/div&gt;&lt;div&gt;&lt;font color=&quot;#00cc00&quot; style=&quot;font-family: &amp;quot;Lucida Console&amp;quot;; font-size: 18px;&quot;&gt;context&lt;/font&gt;&lt;font style=&quot;font-family: &amp;quot;Lucida Console&amp;quot;; font-size: 18px;&quot; color=&quot;#994c00&quot;&gt; = win-&amp;gt;GetRendererContext()&lt;/font&gt;&lt;span style=&quot;font-family: &amp;quot;Lucida Console&amp;quot;; font-size: 18px;&quot;&gt;&lt;br&gt;&lt;/span&gt;&lt;/div&gt;&lt;div&gt;&lt;font face=&quot;Lucida Console&quot;&gt;&lt;span style=&quot;font-size: 18px;&quot;&gt;// add transform component&lt;/span&gt;&lt;/font&gt;&lt;/div&gt;&lt;div&gt;&lt;font face=&quot;Lucida Console&quot;&gt;&lt;span style=&quot;font-size: 18px;&quot;&gt;&lt;font color=&quot;#00cc00&quot;&gt;player&lt;/font&gt;&lt;font color=&quot;#994c00&quot;&gt;-&amp;gt;AddComponent(Transform)&lt;/font&gt;&lt;/span&gt;&lt;/font&gt;&lt;/div&gt;&lt;div&gt;&lt;span style=&quot;font-family: &amp;quot;Lucida Console&amp;quot;; font-size: 18px;&quot;&gt;// add renderer component using context (Transform already exists)&lt;/span&gt;&lt;font face=&quot;Lucida Console&quot;&gt;&lt;span style=&quot;font-size: 18px;&quot;&gt;&lt;font color=&quot;#994c00&quot;&gt;&lt;br&gt;&lt;/font&gt;&lt;/span&gt;&lt;/font&gt;&lt;/div&gt;&lt;div&gt;&lt;font style=&quot;font-family: &amp;quot;Lucida Console&amp;quot;; font-size: 18px;&quot; color=&quot;#00cc00&quot;&gt;player&lt;/font&gt;&lt;font style=&quot;font-family: &amp;quot;Lucida Console&amp;quot;; font-size: 18px;&quot; color=&quot;#994c00&quot;&gt;-&amp;gt;AddComponent(Renderer, context)&lt;/font&gt;&lt;span style=&quot;font-family: &amp;quot;Lucida Console&amp;quot;; font-size: 18px;&quot;&gt;&lt;br&gt;&lt;/span&gt;&lt;/div&gt;&lt;div&gt;&lt;font face=&quot;Lucida Console&quot;&gt;&lt;span style=&quot;font-size: 18px;&quot;&gt;// add texture component using image (Renderer already exists)&lt;/span&gt;&lt;/font&gt;&lt;/div&gt;&lt;div&gt;&lt;font face=&quot;Lucida Console&quot;&gt;&lt;span style=&quot;font-size: 18px;&quot;&gt;&lt;font color=&quot;#00cc00&quot;&gt;player&lt;/font&gt;&lt;font color=&quot;#994c00&quot;&gt;-&amp;gt;AddComponent(Texture, &quot;image.bmp&quot;)&lt;/font&gt;&lt;/span&gt;&lt;/font&gt;&lt;/div&gt;&lt;div&gt;&lt;span style=&quot;font-family: &amp;quot;Lucida Console&amp;quot;; font-size: 18px;&quot;&gt;// subscribe player to input events&lt;/span&gt;&lt;/div&gt;&lt;div&gt;&lt;span style=&quot;color: rgb(0, 204, 0); font-family: &amp;quot;Lucida Console&amp;quot;; font-size: 18px;&quot;&gt;eventDispatcher-&lt;/span&gt;&lt;span style=&quot;font-family: &amp;quot;Lucida Console&amp;quot;; font-size: 18px;&quot;&gt;&lt;font color=&quot;#994c00&quot;&gt;&amp;gt;SubscribeToInput(player)&lt;/font&gt;&lt;/span&gt;&lt;span style=&quot;font-family: &amp;quot;Lucida Console&amp;quot;; font-size: 18px;&quot;&gt;&lt;br&gt;&lt;/span&gt;&lt;/div&gt;&lt;div&gt;&lt;div&gt;&lt;span style=&quot;font-family: &amp;quot;Lucida Console&amp;quot;; font-size: 18px;&quot;&gt;// append player to window&lt;/span&gt;&lt;font face=&quot;Lucida Console&quot;&gt;&lt;span style=&quot;font-size: 18px;&quot;&gt;&lt;font color=&quot;#994c00&quot;&gt;&lt;br&gt;&lt;/font&gt;&lt;/span&gt;&lt;/font&gt;&lt;/div&gt;&lt;div&gt;&lt;font style=&quot;font-family: &amp;quot;Lucida Console&amp;quot;; font-size: 18px;&quot; color=&quot;#00cc00&quot;&gt;obj_id&lt;/font&gt;&lt;font style=&quot;font-family: &amp;quot;Lucida Console&amp;quot;; font-size: 18px;&quot; color=&quot;#994c00&quot;&gt;&amp;nbsp;=&amp;nbsp;&lt;/font&gt;&lt;font style=&quot;font-family: &amp;quot;Lucida Console&amp;quot;; font-size: 18px;&quot; color=&quot;#00cc00&quot;&gt;win-&amp;gt;&lt;/font&gt;&lt;font style=&quot;font-family: &amp;quot;Lucida Console&amp;quot;; font-size: 18px;&quot; color=&quot;#994c00&quot;&gt;AppendObject(player)&lt;/font&gt;&lt;/div&gt;&lt;/div&gt;&lt;div&gt;&lt;font style=&quot;font-family: &amp;quot;Lucida Console&amp;quot;; font-size: 18px;&quot;&gt;// make palyer active&lt;/font&gt;&lt;/div&gt;&lt;div&gt;&lt;font style=&quot;font-family: &amp;quot;Lucida Console&amp;quot;; font-size: 18px;&quot;&gt;&lt;font color=&quot;#00cc00&quot;&gt;win&lt;/font&gt;-&amp;gt;&lt;font color=&quot;#994c00&quot;&gt;SetObjectActive(obj_id, true)&lt;/font&gt;&lt;/font&gt;&lt;/div&gt;&lt;div&gt;&lt;font style=&quot;font-family: &amp;quot;Lucida Console&amp;quot;; font-size: 18px;&quot; color=&quot;#994c00&quot;&gt;&lt;br&gt;&lt;/font&gt;&lt;/div&gt;&lt;div&gt;&lt;font face=&quot;Lucida Console&quot;&gt;&lt;span style=&quot;font-size: 18px;&quot;&gt;// Main Loop&lt;/span&gt;&lt;/font&gt;&lt;/div&gt;&lt;div&gt;&lt;font face=&quot;Lucida Console&quot;&gt;&lt;span style=&quot;font-size: 18px;&quot;&gt;while(true):&lt;/span&gt;&lt;/font&gt;&lt;/div&gt;&lt;div&gt;&lt;font face=&quot;Lucida Console&quot;&gt;&lt;span style=&quot;font-size: 18px;&quot;&gt;// poll for events&lt;/span&gt;&lt;/font&gt;&lt;/div&gt;&lt;div&gt;&lt;font face=&quot;Lucida Console&quot;&gt;&lt;span style=&quot;font-size: 18px;&quot;&gt;&lt;font color=&quot;#00cc00&quot;&gt;event&lt;/font&gt; = &lt;font color=&quot;#00cc00&quot;&gt;eventDispatcher&lt;/font&gt;&lt;font color=&quot;#994c00&quot;&gt;-&amp;gt;PollForEvents()&lt;/font&gt;&lt;/span&gt;&lt;/font&gt;&lt;/div&gt;&lt;div&gt;&lt;span style=&quot;font-family: &amp;quot;Lucida Console&amp;quot;; font-size: 18px;&quot;&gt;// dispatch input event&lt;/span&gt;&lt;font face=&quot;Lucida Console&quot;&gt;&lt;span style=&quot;font-size: 18px;&quot;&gt;&lt;font color=&quot;#994c00&quot;&gt;&lt;br&gt;&lt;/font&gt;&lt;/span&gt;&lt;/font&gt;&lt;/div&gt;&lt;div&gt;&lt;font face=&quot;Lucida Console&quot;&gt;&lt;span style=&quot;font-size: 18px;&quot;&gt;if (event == INPUT_EVENT) :&amp;nbsp;&lt;/span&gt;&lt;/font&gt;&lt;span style=&quot;font-family: &amp;quot;Lucida Console&amp;quot;; font-size: 18px; background-color: initial;&quot;&gt;&lt;font color=&quot;#00cc00&quot;&gt;eventDispatcher&lt;/font&gt;&lt;/span&gt;&lt;span style=&quot;color: rgb(153, 76, 0); font-family: &amp;quot;Lucida Console&amp;quot;; font-size: 18px; background-color: initial;&quot;&gt;-&amp;gt;DispatchInputEvent()&lt;/span&gt;&lt;/div&gt;&lt;div&gt;&lt;font face=&quot;Lucida Console&quot;&gt;&lt;span style=&quot;font-size: 18px;&quot;&gt;// call Update for all active objects&lt;/span&gt;&lt;/font&gt;&lt;/div&gt;&lt;div&gt;&lt;font face=&quot;Lucida Console&quot;&gt;&lt;span style=&quot;font-size: 18px;&quot;&gt;&lt;font color=&quot;#00cc00&quot;&gt;win&lt;/font&gt;-&amp;gt;&lt;font color=&quot;#994c00&quot;&gt;Update()&lt;/font&gt;&lt;/span&gt;&lt;/font&gt;&lt;/div&gt;&lt;div&gt;&lt;font face=&quot;Lucida Console&quot;&gt;&lt;span style=&quot;font-size: 18px;&quot;&gt;sleep(1)&lt;br&gt;&lt;/span&gt;&lt;/font&gt;&lt;div&gt;&lt;font size=&quot;3&quot; face=&quot;Lucida Console&quot;&gt;&lt;br&gt;&lt;/font&gt;&lt;/div&gt;&lt;/div&gt;&lt;/div&gt;" style="rounded=1;whiteSpace=wrap;html=1;" vertex="1" parent="1">
          <mxGeometry x="870" y="320" width="620" height="1130" as="geometry" />
        </mxCell>
        <mxCell id="wa9RRMQDN3JdH_wZfVed-11" value="&lt;font color=&quot;#ea6b66&quot; style=&quot;font-size: 18px;&quot; face=&quot;Lucida Console&quot;&gt;IWindow&lt;/font&gt;&lt;div&gt;&lt;font size=&quot;3&quot; color=&quot;#ea6b66&quot; style=&quot;&quot; face=&quot;Lucida Console&quot;&gt;&lt;br&gt;&lt;/font&gt;&lt;/div&gt;&lt;div&gt;&lt;font size=&quot;3&quot; face=&quot;Lucida Console&quot;&gt;//&lt;font style=&quot;&quot;&gt;main methods&lt;/font&gt;&lt;/font&gt;&lt;/div&gt;&lt;div&gt;&lt;font face=&quot;Lucida Console&quot; size=&quot;3&quot; style=&quot;&quot;&gt;Resize(size)&lt;/font&gt;&lt;/div&gt;&lt;div&gt;&lt;font face=&quot;Lucida Console&quot; size=&quot;3&quot; style=&quot;&quot;&gt;SetMinSize(size)&lt;/font&gt;&lt;/div&gt;&lt;div&gt;&lt;font face=&quot;Lucida Console&quot; size=&quot;3&quot; style=&quot;&quot;&gt;SetMaxSize(size)&lt;/font&gt;&lt;/div&gt;&lt;div&gt;&lt;font face=&quot;Lucida Console&quot; size=&quot;3&quot; style=&quot;&quot;&gt;SetPosition(pos)&lt;/font&gt;&lt;/div&gt;&lt;div&gt;&lt;font face=&quot;Lucida Console&quot; size=&quot;3&quot; style=&quot;&quot;&gt;Show()&lt;/font&gt;&lt;/div&gt;&lt;div&gt;&lt;font face=&quot;Lucida Console&quot; size=&quot;3&quot;&gt;Hide()&lt;/font&gt;&lt;/div&gt;&lt;div&gt;&lt;font face=&quot;Lucida Console&quot; size=&quot;3&quot;&gt;Raise()&lt;/font&gt;&lt;/div&gt;&lt;div&gt;&lt;font face=&quot;Lucida Console&quot; size=&quot;3&quot;&gt;Maximize()&lt;/font&gt;&lt;/div&gt;&lt;div&gt;&lt;font face=&quot;Lucida Console&quot; size=&quot;3&quot;&gt;Minimize()&lt;/font&gt;&lt;/div&gt;&lt;div&gt;&lt;font face=&quot;Lucida Console&quot; size=&quot;3&quot; style=&quot;&quot;&gt;Restore()&lt;/font&gt;&lt;/div&gt;&lt;div&gt;&lt;font size=&quot;3&quot; face=&quot;Lucida Console&quot;&gt;&lt;br&gt;&lt;/font&gt;&lt;/div&gt;&lt;div&gt;&lt;font size=&quot;3&quot; face=&quot;Lucida Console&quot;&gt;//content manipulations&lt;/font&gt;&lt;/div&gt;&lt;div&gt;&lt;div&gt;&lt;font color=&quot;#a59eff&quot; face=&quot;Lucida Console&quot; size=&quot;3&quot;&gt;Clear()&lt;/font&gt;&lt;/div&gt;&lt;div&gt;&lt;font color=&quot;#a59eff&quot; face=&quot;Lucida Console&quot; size=&quot;3&quot;&gt;Update()&lt;/font&gt;&lt;/div&gt;&lt;div&gt;&lt;font color=&quot;#a59eff&quot; face=&quot;Lucida Console&quot; size=&quot;3&quot;&gt;Present()&lt;/font&gt;&lt;/div&gt;&lt;/div&gt;&lt;div&gt;&lt;font face=&quot;Lucida Console&quot; size=&quot;3&quot;&gt;index AppendObject(IGameObject&amp;amp;)&lt;/font&gt;&lt;/div&gt;&lt;div&gt;&lt;font face=&quot;Lucida Console&quot; size=&quot;3&quot;&gt;RemoveObject(index)&lt;/font&gt;&lt;/div&gt;&lt;div&gt;&lt;font face=&quot;Lucida Console&quot; size=&quot;3&quot;&gt;IGameObject &amp;amp;GetObject(index)&lt;/font&gt;&lt;/div&gt;&lt;div&gt;&lt;font face=&quot;Lucida Console&quot; size=&quot;3&quot;&gt;SetObjectActive(index, bool)&lt;/font&gt;&lt;/div&gt;" style="rounded=1;whiteSpace=wrap;html=1;" vertex="1" parent="1">
          <mxGeometry x="22.5" y="-380" width="285" height="500" as="geometry" />
        </mxCell>
        <mxCell id="wa9RRMQDN3JdH_wZfVed-12" style="edgeStyle=orthogonalEdgeStyle;rounded=0;orthogonalLoop=1;jettySize=auto;html=1;exitX=0.5;exitY=0;exitDx=0;exitDy=0;entryX=0.5;entryY=1;entryDx=0;entryDy=0;" edge="1" parent="1" target="wa9RRMQDN3JdH_wZfVed-11" source="wa9RRMQDN3JdH_wZfVed-13">
          <mxGeometry relative="1" as="geometry">
            <mxPoint x="165" y="479.9999999999998" as="sourcePoint" />
          </mxGeometry>
        </mxCell>
        <mxCell id="wa9RRMQDN3JdH_wZfVed-14" style="edgeStyle=orthogonalEdgeStyle;rounded=0;orthogonalLoop=1;jettySize=auto;html=1;exitX=0.5;exitY=1;exitDx=0;exitDy=0;" edge="1" parent="1" source="wa9RRMQDN3JdH_wZfVed-11" target="wa9RRMQDN3JdH_wZfVed-11">
          <mxGeometry relative="1" as="geometry" />
        </mxCell>
        <mxCell id="wa9RRMQDN3JdH_wZfVed-16" style="edgeStyle=orthogonalEdgeStyle;rounded=0;orthogonalLoop=1;jettySize=auto;html=1;entryX=0.5;entryY=1;entryDx=0;entryDy=0;" edge="1" parent="1" source="wa9RRMQDN3JdH_wZfVed-15" target="wa9RRMQDN3JdH_wZfVed-8">
          <mxGeometry relative="1" as="geometry" />
        </mxCell>
        <mxCell id="wa9RRMQDN3JdH_wZfVed-15" value="&lt;font color=&quot;#a59eff&quot; face=&quot;Lucida Console&quot;&gt;&lt;span style=&quot;font-size: 18px;&quot;&gt;GameObject&lt;/span&gt;&lt;/font&gt;&lt;br&gt;&lt;div&gt;&lt;br&gt;&lt;/div&gt;&lt;div&gt;&lt;font face=&quot;Lucida Console&quot; style=&quot;font-size: 18px;&quot;&gt;// properties&lt;/font&gt;&lt;/div&gt;&lt;div&gt;&lt;font face=&quot;Lucida Console&quot; style=&quot;font-size: 18px;&quot;&gt;str m_name&lt;/font&gt;&lt;/div&gt;&lt;div&gt;&lt;font face=&quot;Lucida Console&quot; style=&quot;font-size: 18px;&quot;&gt;map&amp;lt;type, Component*&amp;gt; m_components&lt;/font&gt;&lt;/div&gt;&lt;div&gt;&lt;font face=&quot;Lucida Console&quot; style=&quot;font-size: 18px;&quot;&gt;list&amp;lt;&lt;/font&gt;&lt;span style=&quot;font-family: &amp;quot;Lucida Console&amp;quot;; font-size: 18px;&quot;&gt;GameObject&lt;/span&gt;&lt;font face=&quot;Lucida Console&quot; style=&quot;font-size: 18px;&quot;&gt;*&amp;gt; m_children&lt;/font&gt;&lt;/div&gt;&lt;div&gt;&lt;span style=&quot;font-family: &amp;quot;Lucida Console&amp;quot;; font-size: 18px;&quot;&gt;&lt;br&gt;&lt;/span&gt;&lt;/div&gt;&lt;div&gt;&lt;span style=&quot;font-family: &amp;quot;Lucida Console&amp;quot;; font-size: 18px;&quot;&gt;// add component&lt;/span&gt;&lt;/div&gt;&lt;div&gt;&lt;span style=&quot;font-family: &amp;quot;Lucida Console&amp;quot;; font-size: 18px;&quot;&gt;AddComponent(type, any)&lt;/span&gt;&lt;/div&gt;&lt;div&gt;&lt;span style=&quot;font-family: &amp;quot;Lucida Console&amp;quot;; font-size: 18px;&quot;&gt;// add child&lt;/span&gt;&lt;/div&gt;&lt;div&gt;&lt;span style=&quot;font-family: &amp;quot;Lucida Console&amp;quot;; font-size: 18px;&quot;&gt;AddChild(name)&lt;/span&gt;&lt;/div&gt;&lt;div&gt;&lt;span style=&quot;font-family: &amp;quot;Lucida Console&amp;quot;; font-size: 18px;&quot;&gt;&lt;br&gt;&lt;/span&gt;&lt;/div&gt;&lt;div&gt;&lt;span style=&quot;font-family: &amp;quot;Lucida Console&amp;quot;; font-size: 18px;&quot;&gt;&lt;font color=&quot;#736b00&quot;&gt;OnUpdate override&lt;/font&gt; :&lt;/span&gt;&lt;/div&gt;&lt;div&gt;&lt;span style=&quot;font-family: &amp;quot;Lucida Console&amp;quot;; font-size: 18px;&quot;&gt;// do nothing, override later&lt;/span&gt;&lt;/div&gt;&lt;div&gt;&lt;br&gt;&lt;/div&gt;&lt;div&gt;&lt;br&gt;&lt;/div&gt;&lt;div&gt;&lt;font style=&quot;font-size: 18px;&quot; face=&quot;Lucida Console&quot;&gt;&lt;font color=&quot;#736b00&quot;&gt;Update() final&lt;/font&gt;&amp;nbsp;:&lt;/font&gt;&lt;/div&gt;&lt;div&gt;&lt;font style=&quot;font-size: 18px;&quot; face=&quot;Lucida Console&quot;&gt;// call self OnUpdate()&lt;/font&gt;&lt;/div&gt;&lt;div&gt;&lt;font color=&quot;#994c00&quot; style=&quot;font-size: 18px;&quot; face=&quot;Lucida Console&quot;&gt;this.OnUpdate()&lt;/font&gt;&lt;/div&gt;&lt;div&gt;&lt;font style=&quot;font-size: 18px;&quot; face=&quot;Lucida Console&quot;&gt;// call components&#39; updates&lt;/font&gt;&lt;/div&gt;&lt;div&gt;&lt;font style=&quot;font-size: 18px;&quot; face=&quot;Lucida Console&quot;&gt;foreach(&lt;font color=&quot;#00cc00&quot;&gt;m_components&lt;/font&gt;) : &lt;font color=&quot;#994c00&quot;&gt;OnUpdate()&lt;/font&gt;&lt;/font&gt;&lt;/div&gt;&lt;div&gt;&lt;font style=&quot;font-size: 18px;&quot; face=&quot;Lucida Console&quot;&gt;// call children&#39;s updates&lt;/font&gt;&lt;/div&gt;&lt;div&gt;&lt;font style=&quot;font-size: 18px;&quot; face=&quot;Lucida Console&quot;&gt;foreach(&lt;font color=&quot;#00cc00&quot;&gt;m_children&lt;/font&gt;) : &lt;font color=&quot;#994c00&quot;&gt;OnUpdate()&lt;/font&gt;&lt;/font&gt;&lt;/div&gt;&lt;div&gt;&lt;font style=&quot;font-size: 18px;&quot; face=&quot;Lucida Console&quot;&gt;&lt;br&gt;&lt;/font&gt;&lt;/div&gt;&lt;div&gt;&lt;div&gt;&lt;font color=&quot;#736b00&quot; style=&quot;font-size: 18px;&quot; face=&quot;Lucida Console&quot;&gt;OnKeyDown(key) override :&lt;/font&gt;&lt;/div&gt;&lt;div&gt;&lt;div&gt;&lt;span style=&quot;font-family: &amp;quot;Lucida Console&amp;quot;; font-size: 18px;&quot;&gt;// do nothing, override later&lt;/span&gt;&lt;/div&gt;&lt;div&gt;&lt;br&gt;&lt;/div&gt;&lt;/div&gt;&lt;div&gt;&lt;font color=&quot;#736b00&quot; style=&quot;font-size: 18px;&quot; face=&quot;Lucida Console&quot;&gt;OnKeyUp(key) override :&lt;/font&gt;&lt;/div&gt;&lt;/div&gt;&lt;div&gt;&lt;div&gt;&lt;span style=&quot;font-family: &amp;quot;Lucida Console&amp;quot;; font-size: 18px;&quot;&gt;// do nothing, override later&lt;/span&gt;&lt;/div&gt;&lt;div&gt;&lt;br&gt;&lt;/div&gt;&lt;/div&gt;" style="rounded=1;whiteSpace=wrap;html=1;" vertex="1" parent="1">
          <mxGeometry x="370" y="60" width="430" height="810" as="geometry" />
        </mxCell>
        <mxCell id="wa9RRMQDN3JdH_wZfVed-18" style="edgeStyle=orthogonalEdgeStyle;rounded=0;orthogonalLoop=1;jettySize=auto;html=1;entryX=0.5;entryY=1;entryDx=0;entryDy=0;" edge="1" parent="1" source="wa9RRMQDN3JdH_wZfVed-17" target="wa9RRMQDN3JdH_wZfVed-15">
          <mxGeometry relative="1" as="geometry" />
        </mxCell>
        <mxCell id="wa9RRMQDN3JdH_wZfVed-17" value="&lt;font style=&quot;font-size: 18px;&quot; face=&quot;Lucida Console&quot;&gt;Player (GameObject)&lt;/font&gt;&lt;div&gt;&lt;div&gt;&lt;font style=&quot;font-size: 18px;&quot; face=&quot;Lucida Console&quot;&gt;&lt;br&gt;&lt;/font&gt;&lt;/div&gt;&lt;div&gt;&lt;font style=&quot;font-size: 18px;&quot; face=&quot;Lucida Console&quot;&gt;// Ctors&lt;/font&gt;&lt;/div&gt;&lt;div&gt;&lt;font style=&quot;font-size: 18px;&quot; face=&quot;Lucida Console&quot;&gt;Player(name) :&lt;/font&gt;&lt;/div&gt;&lt;div&gt;&lt;font style=&quot;font-size: 18px;&quot; face=&quot;Lucida Console&quot;&gt;&lt;br&gt;&lt;/font&gt;&lt;/div&gt;&lt;div&gt;&lt;span style=&quot;color: rgb(115, 107, 0); font-family: &amp;quot;Lucida Console&amp;quot;; font-size: 18px;&quot;&gt;OnUpdate() final:&lt;/span&gt;&lt;br&gt;&lt;/div&gt;&lt;div&gt;&lt;span style=&quot;font-family: &amp;quot;Lucida Console&amp;quot;; font-size: 18px;&quot;&gt;// obtain necessary components&lt;/span&gt;&lt;/div&gt;&lt;div&gt;&lt;div&gt;&lt;font style=&quot;font-size: 18px;&quot; face=&quot;Lucida Console&quot;&gt;&lt;font color=&quot;#00cc00&quot;&gt;m_tr&lt;/font&gt; =&amp;nbsp;&lt;/font&gt;&lt;span style=&quot;font-family: &amp;quot;Lucida Console&amp;quot;; font-size: 18px; background-color: initial;&quot;&gt;GameObject::&lt;/span&gt;&lt;span style=&quot;font-size: 18px; font-family: &amp;quot;Lucida Console&amp;quot;; background-color: initial;&quot;&gt;m_components[Transform]&lt;/span&gt;&lt;/div&gt;&lt;div&gt;&lt;font style=&quot;font-size: 18px;&quot; face=&quot;Lucida Console&quot;&gt;&lt;font color=&quot;#00cc00&quot;&gt;m_rend&lt;/font&gt;&amp;nbsp;=&amp;nbsp;&lt;/font&gt;&lt;span style=&quot;background-color: initial; font-family: &amp;quot;Lucida Console&amp;quot;; font-size: 18px;&quot;&gt;GameObject::&lt;/span&gt;&lt;span style=&quot;background-color: initial; font-size: 18px; font-family: &amp;quot;Lucida Console&amp;quot;;&quot;&gt;m_components[Renderer]&lt;/span&gt;&lt;span style=&quot;font-size: 18px; font-family: &amp;quot;Lucida Console&amp;quot;; background-color: initial;&quot;&gt;&lt;br&gt;&lt;/span&gt;&lt;/div&gt;&lt;div&gt;&lt;font style=&quot;font-size: 18px;&quot; face=&quot;Lucida Console&quot;&gt;&lt;font color=&quot;#00cc00&quot;&gt;m_tex&lt;/font&gt; =&amp;nbsp;&lt;/font&gt;&lt;span style=&quot;font-family: &amp;quot;Lucida Console&amp;quot;; font-size: 18px; background-color: initial;&quot;&gt;GameObject::&lt;/span&gt;&lt;span style=&quot;font-size: 18px; font-family: &amp;quot;Lucida Console&amp;quot;; background-color: initial;&quot;&gt;m_component[Texture]&lt;/span&gt;&lt;/div&gt;&lt;/div&gt;&lt;div&gt;&lt;span style=&quot;font-size: 18px; font-family: &amp;quot;Lucida Console&amp;quot;; background-color: initial;&quot;&gt;&lt;br&gt;&lt;/span&gt;&lt;/div&gt;&lt;div&gt;&lt;div&gt;&lt;font face=&quot;Lucida Console&quot;&gt;&lt;span style=&quot;font-size: 18px;&quot;&gt;// prepare some transformations&lt;/span&gt;&lt;/font&gt;&lt;/div&gt;&lt;div&gt;&lt;div&gt;&lt;font face=&quot;Lucida Console&quot;&gt;&lt;span style=&quot;font-size: 18px;&quot;&gt;&lt;font color=&quot;#00cc00&quot;&gt;m_tr&lt;/font&gt;&lt;font color=&quot;#994c00&quot;&gt;-&amp;gt;Rotate(30)&lt;/font&gt;&lt;/span&gt;&lt;/font&gt;&lt;/div&gt;&lt;div&gt;&lt;font face=&quot;Lucida Console&quot;&gt;&lt;span style=&quot;font-size: 18px;&quot;&gt;&lt;font color=&quot;#00cc00&quot;&gt;m_tr&lt;/font&gt;&lt;font color=&quot;#994c00&quot;&gt;-&amp;gt;FlipHorizontally()&lt;/font&gt;&lt;/span&gt;&lt;/font&gt;&lt;/div&gt;&lt;div&gt;&lt;font face=&quot;Lucida Console&quot;&gt;&lt;span style=&quot;font-size: 18px;&quot;&gt;&lt;br&gt;&lt;/span&gt;&lt;/font&gt;&lt;/div&gt;&lt;div&gt;&lt;font face=&quot;Lucida Console&quot;&gt;&lt;span style=&quot;font-size: 18px;&quot;&gt;// prepare texture changes&lt;/span&gt;&lt;/font&gt;&lt;/div&gt;&lt;div&gt;&lt;font face=&quot;Lucida Console&quot;&gt;&lt;span style=&quot;font-size: 18px;&quot;&gt;&lt;font color=&quot;#00cc00&quot;&gt;m_tex&lt;/font&gt;&lt;font color=&quot;#994c00&quot;&gt;-&amp;gt;SetColor(123, 231, 15)&lt;/font&gt;&lt;/span&gt;&lt;/font&gt;&lt;/div&gt;&lt;div&gt;&lt;font face=&quot;Lucida Console&quot;&gt;&lt;span style=&quot;font-size: 18px;&quot;&gt;&lt;font color=&quot;#00cc00&quot;&gt;m_tex&lt;/font&gt;&lt;font color=&quot;#994c00&quot;&gt;-&amp;gt;SetAlpha(145)&lt;/font&gt;&lt;/span&gt;&lt;/font&gt;&lt;/div&gt;&lt;/div&gt;&lt;/div&gt;&lt;/div&gt;&lt;div&gt;&lt;font face=&quot;Lucida Console&quot;&gt;&lt;span style=&quot;font-size: 18px;&quot;&gt;&lt;font color=&quot;#994c00&quot;&gt;&lt;br&gt;&lt;/font&gt;&lt;/span&gt;&lt;/font&gt;&lt;/div&gt;&lt;div&gt;&lt;span style=&quot;font-family: &amp;quot;Lucida Console&amp;quot;; font-size: 18px;&quot;&gt;// prepare renderer changes&lt;/span&gt;&lt;br&gt;&lt;/div&gt;&lt;div&gt;&lt;span style=&quot;font-family: &amp;quot;Lucida Console&amp;quot;; font-size: 18px;&quot;&gt;&lt;font color=&quot;#00cc00&quot;&gt;m_rend&lt;/font&gt;-&lt;font color=&quot;#994c00&quot;&gt;&amp;gt;DrawPoint(12,45)&lt;/font&gt;&lt;/span&gt;&lt;/div&gt;&lt;div&gt;&lt;span style=&quot;font-family: &amp;quot;Lucida Console&amp;quot;; font-size: 18px;&quot;&gt;&lt;font color=&quot;#994c00&quot;&gt;&lt;br&gt;&lt;/font&gt;&lt;/span&gt;&lt;/div&gt;&lt;div&gt;&lt;div&gt;&lt;div&gt;&lt;font style=&quot;font-size: 18px;&quot; color=&quot;#736b00&quot; face=&quot;Lucida Console&quot;&gt;OnKeyDown(key) final :&lt;/font&gt;&lt;/div&gt;&lt;div&gt;&lt;font style=&quot;font-size: 18px;&quot; face=&quot;Lucida Console&quot;&gt;// do something when key pressed&lt;/font&gt;&lt;/div&gt;&lt;div&gt;&lt;div&gt;&lt;font face=&quot;Lucida Console&quot;&gt;&lt;span style=&quot;font-size: 18px;&quot;&gt;if(key==LEFT)&amp;nbsp;&lt;/span&gt;&lt;/font&gt;&lt;font style=&quot;background-color: initial; font-family: &amp;quot;Lucida Console&amp;quot;; font-size: 18px;&quot; color=&quot;#00cc00&quot;&gt;m_tr&lt;/font&gt;&lt;font style=&quot;background-color: initial; font-family: &amp;quot;Lucida Console&amp;quot;; font-size: 18px;&quot; color=&quot;#994c00&quot;&gt;-&amp;gt;Move(-1,0)&lt;/font&gt;&lt;/div&gt;&lt;div&gt;&lt;font face=&quot;Lucida Console&quot;&gt;&lt;span style=&quot;font-size: 18px;&quot;&gt;if(key==RIGHT)&amp;nbsp;&lt;/span&gt;&lt;/font&gt;&lt;font style=&quot;background-color: initial; font-family: &amp;quot;Lucida Console&amp;quot;; font-size: 18px;&quot; color=&quot;#00cc00&quot;&gt;m_tr&lt;/font&gt;&lt;font style=&quot;background-color: initial; font-family: &amp;quot;Lucida Console&amp;quot;; font-size: 18px;&quot; color=&quot;#994c00&quot;&gt;-&amp;gt;Move(1,0)&lt;/font&gt;&lt;font style=&quot;background-color: initial; font-family: &amp;quot;Lucida Console&amp;quot;; font-size: 18px;&quot; color=&quot;#994c00&quot;&gt;&lt;br&gt;&lt;/font&gt;&lt;/div&gt;&lt;div&gt;&lt;font face=&quot;Lucida Console&quot;&gt;&lt;span style=&quot;font-size: 18px;&quot;&gt;if(key==UP)&amp;nbsp;&lt;/span&gt;&lt;/font&gt;&lt;font style=&quot;background-color: initial; font-family: &amp;quot;Lucida Console&amp;quot;; font-size: 18px;&quot; color=&quot;#00cc00&quot;&gt;m_tr&lt;/font&gt;&lt;font style=&quot;background-color: initial; font-family: &amp;quot;Lucida Console&amp;quot;; font-size: 18px;&quot; color=&quot;#994c00&quot;&gt;-&amp;gt;Move(0,1)&lt;/font&gt;&lt;font style=&quot;background-color: initial; font-family: &amp;quot;Lucida Console&amp;quot;; font-size: 18px;&quot; color=&quot;#994c00&quot;&gt;&lt;br&gt;&lt;/font&gt;&lt;/div&gt;&lt;div&gt;&lt;font face=&quot;Lucida Console&quot;&gt;&lt;span style=&quot;font-size: 18px;&quot;&gt;if(key==DOWN)&amp;nbsp;&lt;/span&gt;&lt;/font&gt;&lt;font style=&quot;background-color: initial; font-family: &amp;quot;Lucida Console&amp;quot;; font-size: 18px;&quot; color=&quot;#00cc00&quot;&gt;m_tr&lt;/font&gt;&lt;font style=&quot;background-color: initial; font-family: &amp;quot;Lucida Console&amp;quot;; font-size: 18px;&quot; color=&quot;#994c00&quot;&gt;-&amp;gt;Move(0,-1)&lt;/font&gt;&lt;font style=&quot;background-color: initial; font-family: &amp;quot;Lucida Console&amp;quot;; font-size: 18px;&quot; color=&quot;#994c00&quot;&gt;&lt;br&gt;&lt;/font&gt;&lt;/div&gt;&lt;div&gt;&lt;br&gt;&lt;/div&gt;&lt;/div&gt;&lt;div&gt;&lt;font style=&quot;font-size: 18px;&quot; color=&quot;#736b00&quot; face=&quot;Lucida Console&quot;&gt;OnKeyUp(key) final :&lt;/font&gt;&lt;/div&gt;&lt;/div&gt;&lt;div&gt;&lt;span style=&quot;font-family: &amp;quot;Lucida Console&amp;quot;; font-size: 18px;&quot;&gt;// do something when key released&lt;/span&gt;&lt;/div&gt;&lt;/div&gt;" style="rounded=1;whiteSpace=wrap;html=1;" vertex="1" parent="1">
          <mxGeometry x="370" y="930" width="430" height="830" as="geometry" />
        </mxCell>
        <mxCell id="wa9RRMQDN3JdH_wZfVed-19" value="&lt;font style=&quot;font-size: 18px;&quot; face=&quot;Lucida Console&quot;&gt;Inherits from GameObject&lt;/font&gt;" style="text;html=1;align=center;verticalAlign=middle;resizable=0;points=[];autosize=1;strokeColor=none;fillColor=none;" vertex="1" parent="1">
          <mxGeometry x="600" y="880" width="210" height="40" as="geometry" />
        </mxCell>
        <mxCell id="wa9RRMQDN3JdH_wZfVed-13" value="&lt;font face=&quot;Lucida Console&quot; style=&quot;font-size: 18px;&quot;&gt;Window&lt;/font&gt;&lt;div&gt;&lt;font face=&quot;kOpDdYLP0R7WiHVRMcwB&quot; size=&quot;3&quot; style=&quot;&quot;&gt;&lt;br&gt;&lt;/font&gt;&lt;/div&gt;&lt;div&gt;&lt;font face=&quot;kOpDdYLP0R7WiHVRMcwB&quot; size=&quot;3&quot;&gt;&lt;span style=&quot;&quot;&gt;SDL_Window*&lt;/span&gt;&lt;span style=&quot;color: rgb(230, 237, 243);&quot;&gt;&amp;nbsp;&lt;/span&gt;&lt;font style=&quot;&quot;&gt;m_window&lt;/font&gt;&lt;/font&gt;&lt;/div&gt;&lt;div&gt;&lt;span style=&quot;background-color: initial; font-family: kOpDdYLP0R7WiHVRMcwB; font-size: medium;&quot;&gt;SDL_Renderer* m_renderer&lt;/span&gt;&lt;br&gt;&lt;/div&gt;&lt;div&gt;&lt;pre style=&quot;overflow: visible; margin-top: 0px; margin-bottom: 0px;&quot; class=&quot;sourceCode c&quot;&gt;&lt;code style=&quot;padding: 0px; overflow: visible; position: relative;&quot; class=&quot;sourceCode c&quot;&gt;&lt;span style=&quot;&quot;&gt;&lt;font face=&quot;kOpDdYLP0R7WiHVRMcwB&quot; size=&quot;3&quot;&gt;map&amp;lt;index, Object&amp;gt; m_objects&lt;/font&gt;&lt;/span&gt;&lt;/code&gt;&lt;/pre&gt;&lt;pre style=&quot;overflow: visible; margin-top: 0px; margin-bottom: 0px;&quot; class=&quot;sourceCode c&quot;&gt;&lt;code style=&quot;padding: 0px; overflow: visible; position: relative;&quot; class=&quot;sourceCode c&quot;&gt;&lt;span style=&quot;&quot;&gt;&lt;font face=&quot;kOpDdYLP0R7WiHVRMcwB&quot; size=&quot;3&quot;&gt;set&amp;lt;Object*&amp;gt; m_active_objects&lt;/font&gt;&lt;/span&gt;&lt;/code&gt;&lt;/pre&gt;&lt;pre style=&quot;overflow: visible; margin-top: 0px; margin-bottom: 0px; color: rgb(230, 237, 243);&quot; class=&quot;sourceCode c&quot;&gt;&lt;code style=&quot;background-color: rgb(22, 27, 34); padding: 0px; overflow: visible; position: relative;&quot; class=&quot;sourceCode c&quot;&gt;&lt;span&gt;&lt;font face=&quot;kOpDdYLP0R7WiHVRMcwB&quot; size=&quot;3&quot;&gt;&lt;br&gt;&lt;/font&gt;&lt;/span&gt;&lt;/code&gt;&lt;/pre&gt;&lt;pre style=&quot;overflow: visible; margin-top: 0px; margin-bottom: 0px; color: rgb(230, 237, 243);&quot; class=&quot;sourceCode c&quot;&gt;&lt;span style=&quot;color: rgb(0, 0, 0); white-space: normal;&quot;&gt;&lt;font face=&quot;kOpDdYLP0R7WiHVRMcwB&quot; size=&quot;3&quot;&gt;// Ctors&lt;/font&gt;&lt;/span&gt;&lt;/pre&gt;&lt;pre style=&quot;overflow: visible; margin-top: 0px; margin-bottom: 0px; color: rgb(230, 237, 243);&quot; class=&quot;sourceCode c&quot;&gt;&lt;font face=&quot;kOpDdYLP0R7WiHVRMcwB&quot; size=&quot;3&quot;&gt;&lt;span style=&quot;color: rgb(0, 0, 0); white-space: normal;&quot;&gt;Window(name, size, pos)&lt;/span&gt;&lt;br&gt;&lt;/font&gt;&lt;/pre&gt;&lt;pre style=&quot;overflow: visible; margin-top: 0px; margin-bottom: 0px; color: rgb(230, 237, 243);&quot; class=&quot;sourceCode c&quot;&gt;&lt;span style=&quot;color: rgb(0, 0, 0); white-space: normal;&quot;&gt;&lt;font face=&quot;kOpDdYLP0R7WiHVRMcwB&quot; size=&quot;3&quot;&gt;Window(name, size, [bool]centered)&lt;/font&gt;&lt;/span&gt;&lt;/pre&gt;&lt;pre style=&quot;overflow: visible; margin-top: 0px; margin-bottom: 0px; color: rgb(230, 237, 243);&quot; class=&quot;sourceCode c&quot;&gt;&lt;br&gt;&lt;/pre&gt;&lt;pre style=&quot;overflow: visible; margin-top: 0px; margin-bottom: 0px; color: rgb(230, 237, 243);&quot; class=&quot;sourceCode c&quot;&gt;&lt;span style=&quot;color: rgb(0, 0, 0); white-space: normal;&quot;&gt;&lt;font face=&quot;kOpDdYLP0R7WiHVRMcwB&quot; size=&quot;3&quot;&gt;// Special method for render&lt;/font&gt;&lt;/span&gt;&lt;/pre&gt;&lt;pre style=&quot;overflow: visible; margin-top: 0px; margin-bottom: 0px;&quot; class=&quot;sourceCode c&quot;&gt;&lt;span style=&quot;white-space: normal;&quot;&gt;&lt;font style=&quot;&quot; face=&quot;kOpDdYLP0R7WiHVRMcwB&quot; size=&quot;3&quot;&gt;&lt;font color=&quot;#ff00ff&quot;&gt;RenderContext&lt;/font&gt; GetRenderContext()&lt;/font&gt;&lt;/span&gt;&lt;/pre&gt;&lt;pre style=&quot;overflow: visible; margin-top: 0px; margin-bottom: 0px; color: rgb(230, 237, 243);&quot; class=&quot;sourceCode c&quot;&gt;&lt;span style=&quot;color: rgb(0, 0, 0); white-space: normal;&quot;&gt;&lt;font face=&quot;kOpDdYLP0R7WiHVRMcwB&quot; size=&quot;3&quot;&gt;&lt;br&gt;&lt;/font&gt;&lt;/span&gt;&lt;/pre&gt;&lt;pre style=&quot;overflow: visible; margin-top: 0px; margin-bottom: 0px;&quot; class=&quot;sourceCode c&quot;&gt;&lt;span style=&quot;white-space: normal;&quot;&gt;&lt;font color=&quot;#736b00&quot; style=&quot;&quot; face=&quot;kOpDdYLP0R7WiHVRMcwB&quot; size=&quot;3&quot;&gt;Clear() :&lt;/font&gt;&lt;/span&gt;&lt;/pre&gt;&lt;pre style=&quot;overflow: visible; margin-top: 0px; margin-bottom: 0px;&quot; class=&quot;sourceCode c&quot;&gt;&lt;font size=&quot;3&quot; face=&quot;kOpDdYLP0R7WiHVRMcwB&quot;&gt;&lt;span style=&quot;white-space: normal;&quot;&gt;SDL_RenderClear()&lt;/span&gt;&lt;/font&gt;&lt;/pre&gt;&lt;pre style=&quot;overflow: visible; margin-top: 0px; margin-bottom: 0px; color: rgb(230, 237, 243);&quot; class=&quot;sourceCode c&quot;&gt;&lt;span style=&quot;color: rgb(0, 0, 0); white-space: normal;&quot;&gt;&lt;font size=&quot;3&quot; face=&quot;kOpDdYLP0R7WiHVRMcwB&quot;&gt;&lt;br&gt;&lt;/font&gt;&lt;/span&gt;&lt;/pre&gt;&lt;pre style=&quot;overflow: visible; margin-top: 0px; margin-bottom: 0px;&quot; class=&quot;sourceCode c&quot;&gt;&lt;font size=&quot;3&quot; face=&quot;kOpDdYLP0R7WiHVRMcwB&quot;&gt;&lt;span style=&quot;white-space: normal;&quot;&gt;&lt;font color=&quot;#736b00&quot;&gt;Update() :&lt;/font&gt;&lt;/span&gt;&lt;span style=&quot;color: rgb(0, 0, 0); white-space: normal;&quot;&gt;&lt;br&gt;&lt;/span&gt;&lt;/font&gt;&lt;/pre&gt;&lt;pre style=&quot;overflow: visible; margin-top: 0px; margin-bottom: 0px;&quot; class=&quot;sourceCode c&quot;&gt;&lt;font size=&quot;3&quot; face=&quot;kOpDdYLP0R7WiHVRMcwB&quot;&gt;&lt;span style=&quot;white-space: normal;&quot;&gt;// call objects&#39; updates&lt;/span&gt;&lt;/font&gt;&lt;/pre&gt;&lt;pre style=&quot;overflow: visible; margin-top: 0px; margin-bottom: 0px;&quot; class=&quot;sourceCode c&quot;&gt;&lt;font size=&quot;3&quot; face=&quot;kOpDdYLP0R7WiHVRMcwB&quot;&gt;&lt;span style=&quot;white-space: normal;&quot;&gt;foreach(&lt;font color=&quot;#00cc00&quot;&gt;m_active_objects&lt;/font&gt;) :&amp;nbsp;&lt;/span&gt;&lt;font color=&quot;#994c00&quot;&gt;Update()&lt;/font&gt;&lt;/font&gt;&lt;/pre&gt;&lt;pre style=&quot;overflow: visible; margin-top: 0px; margin-bottom: 0px;&quot; class=&quot;sourceCode c&quot;&gt;&lt;font size=&quot;3&quot; face=&quot;kOpDdYLP0R7WiHVRMcwB&quot;&gt;&lt;font color=&quot;#994c00&quot;&gt;&lt;br&gt;&lt;/font&gt;&lt;/font&gt;&lt;/pre&gt;&lt;pre style=&quot;overflow: visible; margin-top: 0px; margin-bottom: 0px;&quot; class=&quot;sourceCode c&quot;&gt;&lt;font color=&quot;#736b00&quot; size=&quot;3&quot; face=&quot;kOpDdYLP0R7WiHVRMcwB&quot;&gt;Present() :&lt;/font&gt;&lt;/pre&gt;&lt;pre style=&quot;overflow: visible; margin-top: 0px; margin-bottom: 0px;&quot; class=&quot;sourceCode c&quot;&gt;&lt;font size=&quot;3&quot; face=&quot;kOpDdYLP0R7WiHVRMcwB&quot;&gt;&lt;span style=&quot;white-space: normal;&quot;&gt;SDL_RenderPresent()&lt;/span&gt;&lt;/font&gt;&lt;/pre&gt;&lt;/div&gt;&lt;div&gt;&lt;br&gt;&lt;/div&gt;" style="whiteSpace=wrap;html=1;rounded=1;" vertex="1" parent="1">
          <mxGeometry x="-2.5" y="160" width="335" height="570" as="geometry" />
        </mxCell>
        <mxCell id="wa9RRMQDN3JdH_wZfVed-24" value="&lt;font style=&quot;font-size: 18px;&quot;&gt;Since we&#39;re having chicken-and-egg problem&lt;/font&gt;&lt;div&gt;&lt;font style=&quot;font-size: 18px;&quot;&gt;with Render, introduce RenderContext&lt;/font&gt;&lt;/div&gt;&lt;div&gt;&lt;font style=&quot;font-size: 18px;&quot;&gt;it would hold SDL_Renderer* inaccessible by user&lt;/font&gt;&lt;/div&gt;&lt;div&gt;&lt;font style=&quot;font-size: 18px;&quot;&gt;but accessible by Texture and Renderer&lt;/font&gt;&lt;/div&gt;" style="text;html=1;align=center;verticalAlign=middle;resizable=0;points=[];autosize=1;strokeColor=none;fillColor=none;" vertex="1" parent="1">
          <mxGeometry x="-450" y="380" width="420" height="100" as="geometry" />
        </mxCell>
        <mxCell id="wa9RRMQDN3JdH_wZfVed-25" value="&lt;font face=&quot;Lucida Console&quot; style=&quot;font-size: 18px;&quot;&gt;EventDispatcher&lt;/font&gt;&lt;div&gt;&lt;font face=&quot;Lucida Console&quot; style=&quot;font-size: 18px;&quot;&gt;&lt;br&gt;&lt;/font&gt;&lt;/div&gt;&lt;div&gt;&lt;font face=&quot;Lucida Console&quot; style=&quot;font-size: 18px;&quot;&gt;// properties&lt;/font&gt;&lt;/div&gt;&lt;div&gt;&lt;font face=&quot;Lucida Console&quot; style=&quot;font-size: 18px;&quot;&gt;list&amp;lt;IGameObject*&amp;gt; m_input_subscribers&lt;/font&gt;&lt;/div&gt;&lt;div&gt;&lt;font face=&quot;Lucida Console&quot; style=&quot;font-size: 18px;&quot;&gt;&lt;br&gt;&lt;/font&gt;&lt;/div&gt;&lt;div&gt;&lt;font face=&quot;Lucida Console&quot; style=&quot;font-size: 18px;&quot;&gt;// methods&lt;/font&gt;&lt;/div&gt;&lt;div&gt;&lt;font face=&quot;Lucida Console&quot; style=&quot;font-size: 18px;&quot;&gt;PollForEvents()&lt;/font&gt;&lt;/div&gt;&lt;div&gt;&lt;font face=&quot;Lucida Console&quot; style=&quot;font-size: 18px;&quot;&gt;SubscribeToInput(IGameObject*)&lt;/font&gt;&lt;/div&gt;&lt;div&gt;&lt;font face=&quot;Lucida Console&quot; style=&quot;font-size: 18px;&quot;&gt;&lt;br&gt;&lt;/font&gt;&lt;/div&gt;&lt;div&gt;&lt;font face=&quot;Lucida Console&quot; style=&quot;font-size: 18px;&quot;&gt;DispatchInputEvent(event) :&lt;/font&gt;&lt;/div&gt;&lt;div&gt;&lt;font face=&quot;Lucida Console&quot; style=&quot;font-size: 18px;&quot;&gt;// dispatch input events&lt;/font&gt;&lt;/div&gt;&lt;div&gt;&lt;font face=&quot;Lucida Console&quot; style=&quot;font-size: 18px;&quot;&gt;foreach(&lt;/font&gt;&lt;span style=&quot;font-family: &amp;quot;Lucida Console&amp;quot;; font-size: 18px; background-color: initial;&quot;&gt;&lt;font color=&quot;#00cc00&quot;&gt;m_input_subscribers&lt;/font&gt;&lt;/span&gt;&lt;span style=&quot;font-size: 18px; font-family: &amp;quot;Lucida Console&amp;quot;; background-color: initial;&quot;&gt;) :&amp;nbsp;&lt;/span&gt;&lt;/div&gt;&lt;div&gt;&lt;span style=&quot;font-size: 18px; font-family: &amp;quot;Lucida Console&amp;quot;; background-color: initial;&quot;&gt;// call respective methods in GameObject&lt;/span&gt;&lt;/div&gt;&lt;div&gt;&lt;span style=&quot;font-size: 18px; font-family: &amp;quot;Lucida Console&amp;quot;; background-color: initial;&quot;&gt;if (event == KEY_DOWN) : &lt;font color=&quot;#994c00&quot;&gt;OnKeyDown()&lt;/font&gt;&lt;/span&gt;&lt;/div&gt;&lt;div&gt;&lt;span style=&quot;font-family: &amp;quot;Lucida Console&amp;quot;; font-size: 18px;&quot;&gt;if (event == KEY_UP) :&amp;nbsp;&lt;/span&gt;&lt;font style=&quot;font-family: &amp;quot;Lucida Console&amp;quot;; font-size: 18px;&quot; color=&quot;#994c00&quot;&gt;OnKeyUp()&lt;/font&gt;&lt;span style=&quot;font-size: 18px; font-family: &amp;quot;Lucida Console&amp;quot;; background-color: initial;&quot;&gt;&lt;font color=&quot;#994c00&quot;&gt;&lt;br&gt;&lt;/font&gt;&lt;/span&gt;&lt;/div&gt;" style="rounded=1;whiteSpace=wrap;html=1;" vertex="1" parent="1">
          <mxGeometry x="850" y="-110" width="590" height="350" as="geometry" />
        </mxCell>
      </root>
    </mxGraphModel>
  </diagram>
</mxfile>
